<svg xmlns="http://www.w3.org/2000/svg" viewBox="0 0 64 64" role="img" aria-label="LiveLink">
  <title>LiveLink</title>
  <!-- PLC-module -->
  <rect x="5" y="9" width="36" height="48" rx="4" fill="#1E2A44"/>
  <rect x="8" y="12" width="30" height="7" rx="1.5" fill="#29365a"/>
  <rect x="8" y="49" width="30" height="7" rx="1.5" fill="#29365a"/>
  <circle cx="12.0" cy="15.5" r="1.3" fill="#93a0c2"/><circle cx="17.5" cy="15.5" r="1.3" fill="#93a0c2"/><circle cx="23.0" cy="15.5" r="1.3" fill="#93a0c2"/><circle cx="28.5" cy="15.5" r="1.3" fill="#93a0c2"/><circle cx="34.0" cy="15.5" r="1.3" fill="#93a0c2"/><circle cx="12.0" cy="52.5" r="1.3" fill="#93a0c2"/><circle cx="17.5" cy="52.5" r="1.3" fill="#93a0c2"/><circle cx="23.0" cy="52.5" r="1.3" fill="#93a0c2"/><circle cx="28.5" cy="52.5" r="1.3" fill="#93a0c2"/><circle cx="34.0" cy="52.5" r="1.3" fill="#93a0c2"/>
  <!-- status-leds: RUN, COMM (groen), ERR (oranje) -->
  <circle cx="13" cy="27" r="2.6" fill="#6cc04a"/>
  <circle cx="21" cy="27" r="2.6" fill="#6cc04a"/>
  <circle cx="29" cy="27" r="2.6" fill="#E8622A"/>
  <!-- I/O-leds -->
  <rect x="11.0" y="37" width="3" height="3" rx=".6" fill="#6cc04a"/><rect x="15.4" y="37" width="3" height="3" rx=".6" fill="#6cc04a"/><rect x="19.8" y="37" width="3" height="3" rx=".6" fill="#3c4c78"/><rect x="24.2" y="37" width="3" height="3" rx=".6" fill="#6cc04a"/><rect x="28.6" y="37" width="3" height="3" rx=".6" fill="#3c4c78"/><rect x="33.0" y="37" width="3" height="3" rx=".6" fill="#3c4c78"/><rect x="11.0" y="42" width="3" height="3" rx=".6" fill="#3c4c78"/><rect x="15.4" y="42" width="3" height="3" rx=".6" fill="#6cc04a"/><rect x="19.8" y="42" width="3" height="3" rx=".6" fill="#6cc04a"/><rect x="24.2" y="42" width="3" height="3" rx=".6" fill="#3c4c78"/><rect x="28.6" y="42" width="3" height="3" rx=".6" fill="#6cc04a"/><rect x="33.0" y="42" width="3" height="3" rx=".6" fill="#3c4c78"/>
  <!-- live verbinding -->
  <path d="M44.68 25.80 A7 7 0 0 1 44.68 36.20" fill="none" stroke="#E8622A" stroke-width="3.6" stroke-linecap="round"/>
  <path d="M49.03 20.97 A13.5 13.5 0 0 1 49.03 41.03" fill="none" stroke="#E8622A" stroke-width="3.6" stroke-linecap="round"/>
  <path d="M53.38 16.14 A20 20 0 0 1 53.38 45.86" fill="none" stroke="#E8622A" stroke-width="3.6" stroke-linecap="round"/>
</svg>
